<?xml version="1.0" encoding="utf-8"?>
<svg width="532px" height="383px" viewBox="0 0 320 320" version="1.1" xmlns="http://www.w3.org/2000/svg">
  <title>aeternity_mono</title>
  <desc>Created with Sketch.</desc>
  <g id="Page-1" stroke="none" stroke-width="1" fill="none" fill-rule="evenodd">
    <g id="aeternity_mono" fill="#FFFFFF">
      <g id="aeternity-logo-vert-01" transform="matrix(0.461192, 0, 0, 0.461192, 37.322704, 71.579346)">
        <path d="M83.434,276.892 C78.629,276.892 74.688,278.564 71.608,281.911 C68.526,285.262 66.598,290.016 65.823,296.178 L98.717,296.178 L98.717,293.992 C98.717,288.513 97.394,284.291 94.75,281.331 C92.106,278.371 88.333,276.892 83.434,276.892 M30.817,330.962 C33.632,330.962 36.688,330.247 39.988,328.814 C43.287,327.385 46.027,325.627 48.211,323.538 L48.211,308.328 L33.947,308.328 C28.9,308.428 24.924,309.628 22.013,311.933 C19.101,314.236 17.646,317.089 17.646,320.482 C17.646,323.638 18.773,326.173 21.029,328.087 C23.287,330.006 26.549,330.962 30.817,330.962 M86.053,344.354 C73.778,344.354 64.245,340.447 57.454,332.637 C54.299,336.371 50.126,339.259 44.936,341.296 C39.744,343.335 33.899,344.354 27.397,344.354 C18.858,344.354 12.164,342.219 7.313,337.948 C2.459,333.68 0.036,327.761 0.036,320.191 C0.036,312.526 2.92,306.608 8.694,302.436 C14.468,298.264 23.007,296.178 34.311,296.178 L48.211,296.178 L48.211,291.01 C48.211,286.596 47.059,283.138 44.754,280.639 C42.45,278.142 39.162,276.892 34.893,276.892 C30.479,276.892 26.875,277.972 24.087,280.129 C21.296,282.289 19.901,284.97 19.901,288.172 L2.291,286.788 C2.291,279.705 5.358,273.92 11.497,269.432 C17.633,264.944 25.48,262.7 35.039,262.7 C45.856,262.7 53.96,265.929 59.347,272.38 C65.701,265.829 73.729,262.604 83.434,262.7 C93.718,262.7 101.747,265.842 107.522,272.126 C113.294,278.408 116.182,287.251 116.182,298.65 L116.182,308.62 L65.604,308.62 C66.042,315.364 68.102,320.654 71.79,324.485 C75.476,328.319 80.571,330.233 87.073,330.233 C93.718,330.233 99.638,328.828 104.829,326.015 L109.269,323.538 L114.582,335.619 C111.186,338.338 106.951,340.473 101.883,342.023 C96.812,343.576 91.536,344.354 86.053,344.354" id="Fill-1"/>
        <path d="M150.889,245.016 L150.889,264.155 L164.788,264.155 L164.788,277.255 L150.889,277.255 L150.889,321.211 C150.889,324.221 151.481,326.391 152.672,327.726 C153.859,329.06 155.982,329.727 159.038,329.727 C161.077,329.727 163.137,329.482 165.225,328.998 L165.225,342.68 C161.197,343.794 157.316,344.354 153.581,344.354 C139.997,344.354 133.203,336.858 133.203,321.866 L133.203,277.255 L120.251,277.255 L120.251,264.155 L133.203,264.155 L133.203,245.016 L150.889,245.016" id="Fill-2"/>
        <path d="M205.953,276.892 C201.1,276.892 197.184,278.59 194.199,281.984 C191.215,285.382 189.31,290.111 188.486,296.178 L222.18,296.178 L222.18,294.866 C221.793,288.946 220.216,284.472 217.452,281.439 C214.685,278.408 210.853,276.892 205.953,276.892 M208.063,344.354 C196.855,344.354 187.769,340.823 180.809,333.765 C173.846,326.705 170.365,317.307 170.365,305.564 L170.365,303.382 C170.365,295.521 171.883,288.498 174.915,282.313 C177.946,276.128 182.202,271.313 187.687,267.866 C193.167,264.423 199.282,262.7 206.026,262.7 C216.747,262.7 225.03,266.121 230.879,272.962 C236.723,279.803 239.648,289.48 239.648,301.998 L239.648,309.13 L188.196,309.13 C188.73,315.632 190.9,320.774 194.708,324.559 C198.516,328.343 203.308,330.233 209.082,330.233 C217.184,330.233 223.782,326.96 228.877,320.409 L238.41,329.508 C235.255,334.213 231.048,337.865 225.784,340.46 C220.519,343.055 214.612,344.354 208.063,344.354" id="Fill-3"/>
        <path d="M292.848,280.312 C290.52,279.924 288.119,279.729 285.643,279.729 C277.542,279.729 272.083,282.835 269.27,289.046 L269.27,342.897 L251.587,342.897 L251.587,264.155 L268.469,264.155 L268.905,272.962 C273.175,266.121 279.094,262.701 286.663,262.701 C289.186,262.701 291.271,263.04 292.921,263.719 L292.848,280.312" id="Fill-4"/>
        <path d="M318.717,264.155 L319.227,273.253 C325.048,266.217 332.688,262.701 342.15,262.701 C358.55,262.701 366.894,272.088 367.185,290.864 L367.185,342.897 L349.5,342.897 L349.5,291.883 C349.5,286.887 348.421,283.188 346.262,280.784 C344.103,278.383 340.572,277.184 335.675,277.184 C328.54,277.184 323.229,280.41 319.735,286.861 L319.735,342.897 L302.053,342.897 L302.053,264.155 L318.717,264.155" id="Fill-5"/>
        <path d="M380.569,342.897 L398.253,342.897 L398.253,264.155 L380.569,264.155 L380.569,342.897 Z M379.48,243.707 C379.48,240.989 380.34,238.734 382.061,236.939 C383.783,235.144 386.247,234.245 389.449,234.245 C392.651,234.245 395.125,235.144 396.872,236.939 C398.618,238.734 399.491,240.989 399.491,243.707 C399.491,246.375 398.618,248.595 396.872,250.364 C395.125,252.137 392.651,253.021 389.449,253.021 C386.247,253.021 383.783,252.137 382.061,250.364 C380.34,248.595 379.48,246.375 379.48,243.707 L379.48,243.707 Z" id="Fill-6"/>
        <path d="M440.758,245.016 L440.758,264.155 L454.656,264.155 L454.656,277.255 L440.758,277.255 L440.758,321.211 C440.758,324.221 441.35,326.391 442.54,327.726 C443.728,329.06 445.851,329.727 448.906,329.727 C450.945,329.727 453.005,329.482 455.094,328.998 L455.094,342.68 C451.065,343.794 447.185,344.354 443.449,344.354 C429.865,344.354 423.071,336.858 423.071,321.866 L423.071,277.255 L410.119,277.255 L410.119,264.155 L423.071,264.155 L423.071,245.016 L440.758,245.016" id="Fill-7"/>
        <path d="M497.105,317.572 L513.116,264.155 L531.965,264.155 L500.671,354.832 C495.867,368.077 487.718,374.699 476.22,374.699 C473.646,374.699 470.808,374.261 467.704,373.383 L467.704,359.635 L471.052,359.854 C475.515,359.854 478.876,359.04 481.131,357.418 C483.387,355.793 485.17,353.065 486.48,349.236 L489.027,342.475 L461.374,264.155 L480.441,264.155 L497.105,317.572" id="Fill-8"/>
        <path d="M121.822,373.371 L121.822,379.528 L125.624,379.528 C126.697,379.528 127.536,379.262 128.141,378.729 C128.746,378.198 129.048,377.457 129.048,376.511 C129.048,374.463 128.002,373.415 125.908,373.371 L121.822,373.371 Z M121.822,370.854 L125.178,370.854 C126.243,370.854 127.074,370.613 127.673,370.129 C128.275,369.648 128.574,368.964 128.574,368.08 C128.574,367.106 128.296,366.402 127.743,365.97 C127.187,365.536 126.324,365.32 125.151,365.32 L121.822,365.32 L121.822,370.854 Z M118.399,382.262 L118.399,362.56 L125.151,362.56 C127.38,362.56 129.075,363.006 130.239,363.899 C131.402,364.792 131.984,366.122 131.984,367.892 C131.984,368.794 131.741,369.605 131.253,370.326 C130.766,371.047 130.053,371.608 129.115,372.004 C130.181,372.292 131.002,372.836 131.586,373.637 C132.167,374.433 132.458,375.392 132.458,376.511 C132.458,378.36 131.864,379.781 130.677,380.773 C129.492,381.765 127.793,382.262 125.584,382.262 L118.399,382.262 L118.399,382.262 Z" id="Fill-9"/>
        <polyline id="Fill-10" points="152.821 379.528 161.766 379.528 161.766 382.261 149.398 382.261 149.398 362.561 152.821 362.561 152.821 379.528"/>
        <path d="M191.628,371.896 C191.628,369.715 191.216,368.04 190.389,366.876 C189.565,365.713 188.394,365.131 186.878,365.131 C185.4,365.131 184.242,365.71 183.407,366.87 C182.574,368.028 182.146,369.667 182.129,371.788 L182.129,372.925 C182.129,375.09 182.55,376.764 183.395,377.945 C184.238,379.126 185.407,379.718 186.906,379.718 C188.421,379.718 189.587,379.14 190.404,377.985 C191.22,376.831 191.628,375.145 191.628,372.925 L191.628,371.896 Z M195.051,372.925 C195.051,374.856 194.717,376.55 194.05,378.004 C193.383,379.463 192.428,380.581 191.189,381.36 C189.948,382.142 188.52,382.532 186.906,382.532 C185.309,382.532 183.886,382.142 182.637,381.36 C181.387,380.581 180.422,379.471 179.742,378.026 C179.059,376.582 178.715,374.917 178.706,373.033 L178.706,371.924 C178.706,370.002 179.046,368.307 179.726,366.835 C180.409,365.364 181.369,364.239 182.61,363.46 C183.849,362.68 185.272,362.289 186.878,362.289 C188.485,362.289 189.908,362.676 191.147,363.445 C192.388,364.219 193.347,365.327 194.023,366.773 C194.7,368.224 195.042,369.907 195.051,371.828 L195.051,372.925 L195.051,372.925 Z" id="Fill-11"/>
        <path d="M227.647,375.848 C227.448,377.948 226.673,379.59 225.32,380.766 C223.966,381.944 222.167,382.532 219.921,382.532 C218.352,382.532 216.969,382.16 215.772,381.414 C214.579,380.673 213.656,379.613 213.006,378.242 C212.357,376.872 212.019,375.279 211.991,373.466 L211.991,371.626 C211.991,369.769 212.32,368.131 212.979,366.714 C213.638,365.297 214.582,364.206 215.815,363.439 C217.044,362.672 218.469,362.289 220.083,362.289 C222.258,362.289 224.007,362.877 225.333,364.056 C226.659,365.231 227.432,366.899 227.647,369.055 L224.237,369.055 C224.075,367.638 223.664,366.617 222.999,365.988 C222.337,365.362 221.365,365.05 220.083,365.05 C218.595,365.05 217.45,365.593 216.654,366.681 C215.854,367.77 215.446,369.365 215.428,371.47 L215.428,373.217 C215.428,375.347 215.81,376.973 216.573,378.092 C217.334,379.212 218.45,379.771 219.921,379.771 C221.264,379.771 222.275,379.471 222.952,378.865 C223.628,378.26 224.058,377.255 224.237,375.848 L227.647,375.848" id="Fill-12"/>
        <polyline id="Fill-13" points="250.244 373.75 248.011 376.118 248.011 382.262 244.587 382.262 244.587 362.561 248.011 362.561 248.011 371.801 249.905 369.461 255.669 362.561 259.811 362.561 252.489 371.287 260.229 382.262 256.17 382.262 250.244 373.75"/>
        <path d="M292.825,375.848 C292.627,377.948 291.852,379.59 290.498,380.766 C289.145,381.944 287.346,382.532 285.1,382.532 C283.529,382.532 282.147,382.16 280.95,381.414 C279.757,380.673 278.834,379.613 278.185,378.242 C277.534,376.872 277.196,375.279 277.17,373.466 L277.17,371.626 C277.17,369.769 277.498,368.131 278.157,366.714 C278.816,365.297 279.76,364.206 280.993,363.439 C282.223,362.672 283.647,362.289 285.262,362.289 C287.437,362.289 289.186,362.877 290.512,364.056 C291.838,365.231 292.609,366.899 292.825,369.055 L289.415,369.055 C289.254,367.638 288.842,366.617 288.177,365.988 C287.516,365.362 286.543,365.05 285.262,365.05 C283.772,365.05 282.629,365.593 281.832,366.681 C281.031,367.77 280.624,369.365 280.606,371.47 L280.606,373.217 C280.606,375.347 280.987,376.973 281.75,378.092 C282.513,379.212 283.627,379.771 285.1,379.771 C286.442,379.771 287.453,379.471 288.131,378.865 C288.807,378.26 289.235,377.255 289.415,375.848 L292.825,375.848" id="Fill-14"/>
        <polyline id="Fill-15" points="325.408 382.262 321.998 382.262 321.998 373.521 313.188 373.521 313.188 382.262 309.766 382.262 309.766 362.56 313.188 362.56 313.188 370.76 321.998 370.76 321.998 362.56 325.408 362.56 325.408 382.262"/>
        <path d="M348.464,374.914 L354.174,374.914 L351.319,366.741 L348.464,374.914 Z M355.135,377.674 L347.503,377.674 L345.907,382.262 L342.348,382.262 L349.79,362.56 L352.862,362.56 L360.318,382.262 L356.745,382.262 L355.135,377.674 L355.135,377.674 Z" id="Fill-16"/>
        <polygon id="Fill-17" points="377.257 382.261 380.667 382.261 380.667 362.559 377.257 362.559"/>
        <polyline id="Fill-18" points="413.236 382.262 409.813 382.262 401.031 368.283 401.031 382.262 397.607 382.262 397.607 362.56 401.031 362.56 409.84 376.592 409.84 362.56 413.236 362.56 413.236 382.262"/>
        <path d="M376.713,0.912 C335.45,0.912 307.167,26.693 282.724,58.637 L297.208,79.795 C319.602,49.164 343.399,25.063 376.713,25.063 C414.979,25.063 446.8,52.801 452.676,88.985 L357.683,88.985 L357.683,113.138 L477.266,113.138 C477.749,109.178 478.004,105.148 478.004,101.062 C478.004,45.838 432.565,0.912 376.713,0.912" id="Fill-19"/>
        <path d="M376.713,177.059 C335.973,177.059 309.09,141.873 274.965,90.248 C240.84,38.623 208.63,0.912 158.667,0.912 C102.815,0.912 57.376,45.839 57.376,101.062 C57.376,156.283 102.815,201.211 158.667,201.211 C199.859,201.211 228.115,175.518 252.529,143.653 L238.149,122.357 C215.763,152.975 191.97,177.059 158.667,177.059 C116.24,177.059 81.724,142.967 81.724,101.062 C81.724,59.156 116.24,25.063 158.667,25.063 C199.408,25.063 224.84,58.457 260.34,111.79 C295.84,165.123 326.751,201.211 376.713,201.211 C419.649,201.211 456.429,174.657 471.144,137.289 L444.338,137.289 C431.287,160.959 405.868,177.059 376.713,177.059" id="Fill-20"/>
      </g>
    </g>
  </g>
</svg>