<?xml version="1.0" encoding="UTF-8" standalone="no"?>
<svg
   xmlns:dc="http://purl.org/dc/elements/1.1/"
   xmlns:cc="http://creativecommons.org/ns#"
   xmlns:rdf="http://www.w3.org/1999/02/22-rdf-syntax-ns#"
   xmlns:svg="http://www.w3.org/2000/svg"
   xmlns="http://www.w3.org/2000/svg"
   viewBox="0 0 267.53333 53.946667"
   height="53.946667"
   width="267.53333"
   xml:space="preserve"
   id="svg2"
   version="1.1"><metadata
     id="metadata8"><rdf:RDF><cc:Work
         rdf:about=""><dc:format>image/svg+xml</dc:format><dc:type
           rdf:resource="http://purl.org/dc/dcmitype/StillImage" /></cc:Work></rdf:RDF></metadata><defs
     id="defs6" /><g
     transform="matrix(1.3333333,0,0,-1.3333333,0,53.946667)"
     id="g10"><g
       transform="scale(0.1)"
       id="g12"><path
         id="path14"
         style="fill:#7a4573;fill-opacity:1;fill-rule:nonzero;stroke:none"
         d="m 144.277,164.09 h 48.09 v 48.098 l -48.09,-48.098 v 0" /><path
         id="path16"
         style="fill:#8a5e98;fill-opacity:1;fill-rule:nonzero;stroke:none"
         d="M 144.277,212.188 V 164.09 l 48.09,48.098 v 0 h -48.09" /><path
         id="path18"
         style="fill:#4494d6;fill-opacity:1;fill-rule:nonzero;stroke:none"
         d="M 96.1875,115.996 H 144.277 V 164.09 L 96.1875,115.996 v 0" /><path
         id="path20"
         style="fill:#5bb8e7;fill-opacity:1;fill-rule:nonzero;stroke:none"
         d="m 96.1875,164.09 v -48.094 l 48.0895,48.094 v 0 H 96.1875" /><path
         id="path22"
         style="fill:#4c3d8c;fill-opacity:1;fill-rule:nonzero;stroke:none"
         d="m 144.277,164.09 v -48.086 l 48.09,48.086 v 0 h -48.09" /><path
         id="path24"
         style="fill:#5c53a1;fill-opacity:1;fill-rule:nonzero;stroke:none"
         d="m 144.277,115.996 h 48.09 v 48.094 l -48.09,-48.086 v -0.008" /><path
         id="path26"
         style="fill:#357ac1;fill-opacity:1;fill-rule:nonzero;stroke:none"
         d="M 96.1875,115.996 V 67.9102 l 48.0895,48.0858 v 0 H 96.1875" /><path
         id="path28"
         style="fill:#285d9e;fill-opacity:1;fill-rule:nonzero;stroke:none"
         d="M 144.277,67.9102 V 115.996 L 96.1875,67.9102 Z" /><path
         id="path30"
         style="fill:#28567f;fill-opacity:1;fill-rule:nonzero;stroke:none"
         d="M 192.367,67.9102 V 115.996 L 144.281,67.9102 Z" /><path
         id="path32"
         style="fill:#5d64b8;fill-opacity:1;fill-rule:nonzero;stroke:none"
         d="M 144.277,115.996 V 67.9102 h 0.004 l 48.086,48.0858 v 0 h -48.09" /><path
         id="path34"
         style="fill:#9a182f;fill-opacity:1;fill-rule:nonzero;stroke:none"
         d="m 144.277,212.188 h 48.09 v 48.085 l -48.09,-48.085 v 0" /><path
         id="path36"
         style="fill:#8a5e98;fill-opacity:1;fill-rule:nonzero;stroke:none"
         d="m 96.1875,164.09 h 48.0895 v 48.098 L 96.1875,164.09 v 0" /><path
         id="path38"
         style="fill:#65ad41;fill-opacity:1;fill-rule:nonzero;stroke:none"
         d="M 48.0938,115.996 H 96.1875 V 164.09 H 96.1797 L 48.0938,116.004 v -0.008" /><path
         id="path40"
         style="fill:#9ad86e;fill-opacity:1;fill-rule:nonzero;stroke:none"
         d="M 48.0938,116.004 96.1797,164.09 H 48.0938 Z" /><path
         id="path42"
         style="fill:#ee651b;fill-opacity:1;fill-rule:nonzero;stroke:none"
         d="m 144.277,260.281 48.09,48.086 h -48.09 z" /><path
         id="path44"
         style="fill:#6266a4;fill-opacity:1;fill-rule:nonzero;stroke:none"
         d="m 96.1875,212.188 48.0895,48.085 H 96.1875 Z" /><path
         id="path46"
         style="fill:#8a5e98;fill-opacity:1;fill-rule:nonzero;stroke:none"
         d="m 48.0938,164.09 48.0859,48.098 H 48.0938 Z" /><path
         id="path48"
         style="fill:#e14822;fill-opacity:1;fill-rule:nonzero;stroke:none"
         d="m 240.465,356.465 v 0 h -48.094 v 48.086 l 48.094,-48.086" /><path
         id="path50"
         style="fill:#e14822;fill-opacity:1;fill-rule:nonzero;stroke:none"
         d="m 240.465,308.367 v 48.098 l 48.09,-48.098 z" /><path
         id="path52"
         style="fill:#ee651b;fill-opacity:1;fill-rule:nonzero;stroke:none"
         d="m 288.555,308.367 -48.09,48.098 h 48.09 z" /><path
         id="path54"
         style="fill:#e14822;fill-opacity:1;fill-rule:nonzero;stroke:none"
         d="m 336.645,260.281 -48.09,48.086 h 48.09 z" /><path
         id="path56"
         style="fill:#ee1f35;fill-opacity:1;fill-rule:nonzero;stroke:none"
         d="m 336.645,260.273 h -48.09 v 48.094 l 48.09,-48.086 v -0.008" /><path
         id="path58"
         style="fill:#9a182f;fill-opacity:1;fill-rule:nonzero;stroke:none"
         d="m 384.738,212.188 h -48.09 v 48.085 l 48.09,-48.085 v 0" /><path
         id="path60"
         style="fill:#ffffff;fill-opacity:1;fill-rule:nonzero;stroke:none"
         d="m 288.555,260.273 v 0 0.008 z" /><path
         id="path62"
         style="fill:#6266a4;fill-opacity:1;fill-rule:nonzero;stroke:none"
         d="m 240.465,308.367 v 0 h -48.094 v 48.098 l 48.094,-48.098" /><path
         id="path64"
         style="fill:#4d4b89;fill-opacity:1;fill-rule:nonzero;stroke:none"
         d="m 240.465,356.465 v -48.098 l -48.094,48.098 z" /><path
         id="path66"
         style="fill:#e14822;fill-opacity:1;fill-rule:nonzero;stroke:none"
         d="m 288.555,260.273 h -48.09 v 48.094 l 48.09,-48.086 v -0.008" /><path
         id="path68"
         style="fill:#ee651b;fill-opacity:1;fill-rule:nonzero;stroke:none"
         d="m 288.555,308.367 v -48.086 l -48.09,48.086 v 0 h 48.09" /><path
         id="path70"
         style="fill:#4d4b89;fill-opacity:1;fill-rule:nonzero;stroke:none"
         d="m 336.645,212.188 v 0 h -48.09 v 48.085 l 48.09,-48.085" /><path
         id="path72"
         style="fill:#6266a4;fill-opacity:1;fill-rule:nonzero;stroke:none"
         d="m 336.645,260.273 v -48.085 l -48.09,48.085 z" /><path
         id="path74"
         style="fill:#ffffff;fill-opacity:1;fill-rule:nonzero;stroke:none"
         d="m 288.559,212.188 h -0.004 v 0 z" /><path
         id="path76"
         style="fill:#e14822;fill-opacity:1;fill-rule:nonzero;stroke:none"
         d="m 240.465,308.367 v -48.086 l -48.094,48.086 z" /><path
         id="path78"
         style="fill:#ee1f35;fill-opacity:1;fill-rule:nonzero;stroke:none"
         d="m 288.555,260.273 v -48.085 l -48.09,48.085 v 0 h 48.09" /><path
         id="path80"
         style="fill:#8a5e98;fill-opacity:1;fill-rule:nonzero;stroke:none"
         d="M 336.645,212.188 V 164.09 l -48.086,48.098 z" /><path
         id="path82"
         style="fill:#ffffff;fill-opacity:1;fill-rule:nonzero;stroke:none"
         d="m 288.559,164.09 h -0.004 v 0 z" /><path
         id="path84"
         style="fill:#4d4b89;fill-opacity:1;fill-rule:nonzero;stroke:none"
         d="m 240.465,212.188 v 0 h -48.094 v 48.085 l 48.094,-48.085" /><path
         id="path86"
         style="fill:#7a4573;fill-opacity:1;fill-rule:nonzero;stroke:none"
         d="m 288.555,164.09 h -48.09 v 48.098 l 48.09,-48.098 v 0" /><path
         id="path88"
         style="fill:#6266a4;fill-opacity:1;fill-rule:nonzero;stroke:none"
         d="M 336.645,164.09 V 116.004 L 288.559,164.09 Z" /><path
         id="path90"
         style="fill:#7268bb;fill-opacity:1;fill-rule:nonzero;stroke:none"
         d="m 336.645,116.004 v -0.008 h -48.09 v 48.094 h 0.004 l 48.086,-48.086" /><path
         id="path92"
         style="fill:#ffffff;fill-opacity:1;fill-rule:nonzero;stroke:none"
         d="m 288.559,115.996 h -0.004 v 0.008 z" /><path
         id="path94"
         style="fill:#8a5e98;fill-opacity:1;fill-rule:nonzero;stroke:none"
         d="M 240.465,212.188 V 164.09 l -48.094,48.098 z" /><path
         id="path96"
         style="fill:#7a4573;fill-opacity:1;fill-rule:nonzero;stroke:none"
         d="m 240.465,164.09 v 0 h -48.094 v 48.098 l 48.094,-48.098" /><path
         id="path98"
         style="fill:#4c3d8c;fill-opacity:1;fill-rule:nonzero;stroke:none"
         d="m 288.555,116.004 -48.09,48.086 h 48.09 z" /><path
         id="path100"
         style="fill:#5c53a1;fill-opacity:1;fill-rule:nonzero;stroke:none"
         d="m 288.555,115.996 h -48.09 v 48.094 l 48.09,-48.086 v -0.008" /><path
         id="path102"
         style="fill:#ffffff;fill-opacity:1;fill-rule:nonzero;stroke:none"
         d="m 288.555,67.9102 v 0 0 z" /><path
         id="path104"
         style="fill:#7268bb;fill-opacity:1;fill-rule:nonzero;stroke:none"
         d="m 240.465,116.004 v -0.008 h -48.094 v 48.094 l 48.094,-48.086" /><path
         id="path106"
         style="fill:#6266a4;fill-opacity:1;fill-rule:nonzero;stroke:none"
         d="M 240.465,164.09 V 116.004 L 192.371,164.09 Z" /><path
         id="path108"
         style="fill:#5d64b8;fill-opacity:1;fill-rule:nonzero;stroke:none"
         d="m 288.555,67.9102 -48.09,48.0858 h 48.09 z" /><path
         id="path110"
         style="fill:#28567f;fill-opacity:1;fill-rule:nonzero;stroke:none"
         d="m 288.555,67.9102 h -48.09 v 48.0858 l 48.09,-48.0858 v 0" /><path
         id="path112"
         style="fill:#ee651b;fill-opacity:1;fill-rule:nonzero;stroke:none"
         d="M 240.465,115.996 V 67.9102 l -48.094,48.0858 z" /><path
         id="path114"
         style="fill:#e14822;fill-opacity:1;fill-rule:nonzero;stroke:none"
         d="m 240.465,67.9102 v 0 h -48.094 v 48.0858 l 48.094,-48.0858" /><path
         id="path116"
         style="fill:#ffffff;fill-opacity:1;fill-rule:nonzero;stroke:none"
         d="m 288.559,356.465 h -0.004 v 0 z" /><path
         id="path118"
         style="fill:#6266a4;fill-opacity:1;fill-rule:nonzero;stroke:none"
         d="m 336.645,308.367 v 0 h -48.09 v 48.098 h 0.004 l 48.086,-48.098" /><path
         id="path120"
         style="fill:#e14822;fill-opacity:1;fill-rule:nonzero;stroke:none"
         d="m 144.277,308.367 h 48.09 v 48.098 l -48.09,-48.086 v -0.012" /><path
         id="path122"
         style="fill:#ee651b;fill-opacity:1;fill-rule:nonzero;stroke:none"
         d="m 144.277,308.379 48.09,48.086 h -48.09 z" /><path
         id="path124"
         style="fill:#97d548;fill-opacity:1;fill-rule:nonzero;stroke:none"
         d="m 96.1875,260.281 48.0855,48.086 H 96.1875 Z" /><path
         id="path126"
         style="fill:#65ad41;fill-opacity:1;fill-rule:nonzero;stroke:none"
         d="m 96.1875,260.273 h 48.0895 v 48.094 h -0.004 L 96.1875,260.281 v -0.008" /><path
         id="path128"
         style="fill:#9a182f;fill-opacity:1;fill-rule:nonzero;stroke:none"
         d="m 48.0938,212.188 h 48.0937 v 48.085 H 96.1797 L 48.0938,212.188 v 0" /><path
         id="path130"
         style="fill:#ee1f35;fill-opacity:1;fill-rule:nonzero;stroke:none"
         d="m 48.0938,212.188 48.0859,48.085 H 48.0938 Z" /><path
         id="path132"
         style="fill:#f79214;fill-opacity:1;fill-rule:nonzero;stroke:none"
         d="m 144.277,356.465 v 0 h 48.09 v 48.086 h -0.004 l -48.086,-48.086" /><path
         id="path134"
         style="fill:#f79214;fill-opacity:1;fill-rule:nonzero;stroke:none"
         d="m 96.1875,308.367 h 48.0895 v 48.098 h -0.004 L 96.1875,308.379 v -0.012" /><path
         id="path136"
         style="fill:#f9af0f;fill-opacity:1;fill-rule:nonzero;stroke:none"
         d="m 96.1875,308.379 48.0855,48.086 H 96.1875 Z" /><path
         id="path138"
         style="fill:#42a53b;fill-opacity:1;fill-rule:nonzero;stroke:none"
         d="m 48.0938,260.273 h 48.0937 v 48.094 H 96.1797 L 48.0938,260.281 v -0.008" /><path
         id="path140"
         style="fill:#36923b;fill-opacity:1;fill-rule:nonzero;stroke:none"
         d="m 48.0938,260.281 48.0859,48.086 H 48.0938 Z" /><path
         id="path142"
         style="fill:#36923b;fill-opacity:1;fill-rule:nonzero;stroke:none"
         d="m 0,212.188 h 48.0898 v 48.085 H 48.0859 L 0,212.188 v 0" /><path
         id="path144"
         style="fill:#47975b;fill-opacity:1;fill-rule:nonzero;stroke:none"
         d="m 48.0938,308.367 h 48.0937 v 48.098 h -0.0117 l -48.082,-48.086 v -0.012" /><path
         id="path146"
         style="fill:#4c96b7;fill-opacity:1;fill-rule:nonzero;stroke:none"
         d="M 135.816,396.102 C 121.863,391.816 108.59,385.984 96.1875,378.809 v -22.336 l 39.6285,39.629" /><path
         id="path148"
         style="fill:#98dbc6;fill-opacity:1;fill-rule:nonzero;stroke:none"
         d="M 96.1875,378.809 C 85.0859,372.391 74.6953,364.891 65.1445,356.465 h 31.043 v 22.344" /><path
         id="path150"
         style="fill:#4ea97f;fill-opacity:1;fill-rule:nonzero;stroke:none"
         d="M 96.1758,356.465 H 65.1445 C 59.1172,351.141 53.418,345.438 48.0938,339.402 v -31.023 l 48.082,48.086" /><path
         id="path152"
         style="fill:#9ad86e;fill-opacity:1;fill-rule:nonzero;stroke:none"
         d="M 25.7461,308.367 C 18.5703,295.965 12.7422,282.695 8.45703,268.738 L 48.0859,308.367 H 25.7461" /><path
         id="path154"
         style="fill:#98dbc6;fill-opacity:1;fill-rule:nonzero;stroke:none"
         d="m 48.0898,339.402 c -8.4257,-9.55 -15.9257,-19.941 -22.3437,-31.035 h 22.3437 v 31.035" /><path
         id="path156"
         style="fill:#42a53b;fill-opacity:1;fill-rule:nonzero;stroke:none"
         d="M 48.0898,308.367 H 48.0859 L 8.45703,268.738 C 7.59766,265.945 6.79688,263.125 6.0625,260.273 h 42.0273 v 48.094" /><path
         id="path158"
         style="fill:#47975b;fill-opacity:1;fill-rule:nonzero;stroke:none"
         d="m 96.1875,356.465 h 48.0895 v 42.031 c -2.847,-0.734 -5.668,-1.543 -8.461,-2.394 L 96.1875,356.473 v -0.008" /><path
         id="path160"
         style="fill:#f9af0f;fill-opacity:1;fill-rule:nonzero;stroke:none"
         d="m 192.363,404.551 c -16.601,0 -32.715,-2.102 -48.086,-6.055 v -42.031 l 48.086,48.086" /><path
         id="path162"
         style="fill:#ee651b;fill-opacity:1;fill-rule:nonzero;stroke:none"
         d="m 240.465,398.496 c -15.371,3.953 -31.485,6.055 -48.094,6.055 l 48.094,-48.086 v 42.031" /><path
         id="path164"
         style="fill:#4d4b89;fill-opacity:1;fill-rule:nonzero;stroke:none"
         d="m 288.555,378.809 c -12.403,7.175 -25.68,13.007 -39.633,17.293 l 39.633,-39.637 v 22.344" /><path
         id="path166"
         style="fill:#e14822;fill-opacity:1;fill-rule:nonzero;stroke:none"
         d="m 336.648,308.367 v 0 l 39.633,-39.629 c -4.281,13.946 -10.109,27.227 -17.285,39.629 h -22.348" /><path
         id="path168"
         style="fill:#6266a4;fill-opacity:1;fill-rule:nonzero;stroke:none"
         d="m 319.594,356.465 c -9.551,8.426 -19.942,15.926 -31.039,22.344 v -22.344 h 31.039" /><path
         id="path170"
         style="fill:#6266a4;fill-opacity:1;fill-rule:nonzero;stroke:none"
         d="m 288.555,356.465 v 0 l -39.633,39.637 c -2.793,0.859 -5.613,1.66 -8.457,2.394 v -42.031 h 48.09" /><path
         id="path172"
         style="fill:#6266a4;fill-opacity:1;fill-rule:nonzero;stroke:none"
         d="m 336.648,308.367 h 22.348 c -6.418,11.094 -13.918,21.485 -22.348,31.035 v -31.035" /><path
         id="path174"
         style="fill:#ee1f35;fill-opacity:1;fill-rule:nonzero;stroke:none"
         d="m 336.648,260.273 v 0 l 48.09,-48.085 c 0,16.601 -2.101,32.722 -6.058,48.085 h -42.032" /><path
         id="path176"
         style="fill:#4d4b89;fill-opacity:1;fill-rule:nonzero;stroke:none"
         d="m 336.645,308.367 v 31.047 c -5.325,6.024 -11.016,11.727 -17.051,17.051 h -31.035 l 48.086,-48.098" /><path
         id="path178"
         style="fill:#8a5e98;fill-opacity:1;fill-rule:nonzero;stroke:none"
         d="m 336.648,212.188 43.215,-43.215 c 3.188,13.886 4.875,28.351 4.875,43.215 v 0 h -48.09 v 0" /><path
         id="path180"
         style="fill:#7268bb;fill-opacity:1;fill-rule:nonzero;stroke:none"
         d="m 336.648,115.996 h 22.348 c 3.188,5.508 6.106,11.18 8.742,17 l -31.09,31.094 v -48.094" /><path
         id="path182"
         style="fill:#ee651b;fill-opacity:1;fill-rule:nonzero;stroke:none"
         d="m 336.648,260.273 h 42.032 c -0.731,2.852 -1.535,5.665 -2.399,8.465 l -39.633,39.629 v -48.094" /><path
         id="path184"
         style="fill:#65ad41;fill-opacity:1;fill-rule:nonzero;stroke:none"
         d="m 96.1875,67.9102 h -31.043 c 5.5235,-4.875 11.3243,-9.4336 17.3828,-13.6524 l 13.6602,13.6524 v 0" /><path
         id="path186"
         style="fill:#5bb8e7;fill-opacity:1;fill-rule:nonzero;stroke:none"
         d="m 113.188,36.8164 c 9.941,-4.4922 20.332,-8.1758 31.089,-10.9375 V 67.9102 L 113.188,36.8164" /><path
         id="path188"
         style="fill:#4d4b89;fill-opacity:1;fill-rule:nonzero;stroke:none"
         d="m 336.648,164.09 31.09,-31.094 c 4.496,9.953 8.172,20.344 10.942,31.094 h -42.032 v 0" /><path
         id="path190"
         style="fill:#ee651b;fill-opacity:1;fill-rule:nonzero;stroke:none"
         d="m 336.648,84.9609 c 4.875,5.5274 9.434,11.3282 13.653,17.3831 l -13.653,13.652 V 84.9609" /><path
         id="path192"
         style="fill:#ee651b;fill-opacity:1;fill-rule:nonzero;stroke:none"
         d="m 288.555,45.5547 c 4.679,2.7148 9.23,5.6172 13.656,8.7031 L 288.555,67.9102 V 45.5547" /><path
         id="path194"
         style="fill:#ee651b;fill-opacity:1;fill-rule:nonzero;stroke:none"
         d="M 240.465,67.9102 V 25.8789 c 10.754,2.7617 21.144,6.4453 31.094,10.9375 l -31.094,31.0938" /><path
         id="path196"
         style="fill:#5d64b8;fill-opacity:1;fill-rule:nonzero;stroke:none"
         d="M 192.371,67.9102 V 19.8125 c 14.859,0 29.328,1.6914 43.219,4.8828 l -43.219,43.2149 v 0" /><path
         id="path198"
         style="fill:#98dbc6;fill-opacity:1;fill-rule:nonzero;stroke:none"
         d="M 48.0938,115.996 V 84.9609 c 2.664,-3.0195 5.4062,-5.957 8.25,-8.8007 L 96.1875,115.996 H 48.0938" /><path
         id="path200"
         style="fill:#98dbc6;fill-opacity:1;fill-rule:nonzero;stroke:none"
         d="M 144.277,67.9102 H 96.1875 V 45.5547 c 5.5005,-3.1836 11.1715,-6.1016 17.0005,-8.7383 l 31.089,31.0938 v 0" /><path
         id="path202"
         style="fill:#7a4573;fill-opacity:1;fill-rule:nonzero;stroke:none"
         d="m 336.648,164.09 h 42.032 c 0.418,1.621 0.812,3.242 1.183,4.883 l -43.215,43.215 V 164.09" /><path
         id="path204"
         style="fill:#ee1f35;fill-opacity:1;fill-rule:nonzero;stroke:none"
         d="m 350.301,102.344 c 3.082,4.422 5.988,8.972 8.695,13.652 h -22.348 l 13.653,-13.652" /><path
         id="path206"
         style="fill:#ee1f35;fill-opacity:1;fill-rule:nonzero;stroke:none"
         d="m 302.211,54.2578 c 6.059,4.2188 11.859,8.7774 17.383,13.6524 h -31.039 l 13.656,-13.6524" /><path
         id="path208"
         style="fill:#e14822;fill-opacity:1;fill-rule:nonzero;stroke:none"
         d="m 240.465,67.9102 31.094,-31.0938 c 5.824,2.6367 11.496,5.5547 16.996,8.7383 v 22.3555 h -48.09" /><path
         id="path210"
         style="fill:#28567f;fill-opacity:1;fill-rule:nonzero;stroke:none"
         d="M 192.371,67.9102 235.59,24.6953 c 1.633,0.3711 3.258,0.7617 4.875,1.1836 v 42.0313 h -48.094" /><path
         id="path212"
         style="fill:#4ea97f;fill-opacity:1;fill-rule:nonzero;stroke:none"
         d="m 82.5273,54.2578 c 4.4258,-3.0859 8.9766,-5.9883 13.6602,-8.7031 V 67.9102 L 82.5273,54.2578" /><path
         id="path214"
         style="fill:#65ad41;fill-opacity:1;fill-rule:nonzero;stroke:none"
         d="m 25.7422,115.996 c 2.7109,-4.68 5.6133,-9.23 8.6953,-13.652 l 13.6523,13.652 H 25.7422" /><path
         id="path216"
         style="fill:#e14822;fill-opacity:1;fill-rule:nonzero;stroke:none"
         d="m 336.645,115.996 h -48.086 l 39.839,-39.8358 c 2.84,2.8437 5.59,5.7812 8.247,8.8007 v 31.0351" /><path
         id="path218"
         style="fill:#42a53b;fill-opacity:1;fill-rule:nonzero;stroke:none"
         d="m 0,212.188 v 0 C 0,197.324 1.6875,182.859 4.87891,168.973 L 48.0898,212.188 H 0" /><path
         id="path220"
         style="fill:#4ea97f;fill-opacity:1;fill-rule:nonzero;stroke:none"
         d="M 48.0898,115.996 34.4375,102.344 c 4.2188,-6.0549 8.7813,-11.8557 13.6523,-17.3831 v 31.0351 0" /><path
         id="path222"
         style="fill:#42a53b;fill-opacity:1;fill-rule:nonzero;stroke:none"
         d="M 6.0625,164.09 C 8.82813,153.34 12.5039,142.949 17,133.008 L 48.0898,164.09 H 6.0625" /><path
         id="path224"
         style="fill:#ee651b;fill-opacity:1;fill-rule:nonzero;stroke:none"
         d="m 328.398,76.1602 -39.839,39.8358 h -0.004 V 67.9102 h 31.039 c 3.015,2.664 5.957,5.4101 8.804,8.25" /><path
         id="path226"
         style="fill:#65ad41;fill-opacity:1;fill-rule:nonzero;stroke:none"
         d="M 6.0625,260.273 C 2.10547,244.91 0.00390625,228.797 0,212.188 l 48.0859,48.085 H 6.0625" /><path
         id="path228"
         style="fill:#5bb8e7;fill-opacity:1;fill-rule:nonzero;stroke:none"
         d="M 96.1875,115.996 56.3438,76.1602 c 2.8437,-2.8399 5.7851,-5.586 8.8007,-8.25 h 31.043 v 48.0858" /><path
         id="path230"
         style="fill:#285d9e;fill-opacity:1;fill-rule:nonzero;stroke:none"
         d="m 149.152,24.6953 c 13.895,-3.1914 28.356,-4.8828 43.215,-4.8828 V 67.9102 L 149.152,24.6953" /><path
         id="path232"
         style="fill:#36923b;fill-opacity:1;fill-rule:nonzero;stroke:none"
         d="m 48.0898,164.09 v 0 L 17,133.008 c 2.6367,-5.832 5.5586,-11.504 8.7422,-17.012 h 22.3476 v 48.094" /><path
         id="path234"
         style="fill:#357ac1;fill-opacity:1;fill-rule:nonzero;stroke:none"
         d="m 192.367,67.9102 h -48.09 V 25.8789 c 1.618,-0.4219 3.246,-0.8125 4.875,-1.1836 l 43.215,43.2149 v 0" /><path
         id="path236"
         style="fill:#2b8745;fill-opacity:1;fill-rule:nonzero;stroke:none"
         d="m 48.0898,212.188 v 0 L 4.87891,168.973 c 0.375,-1.629 0.76562,-3.262 1.18359,-4.883 h 42.0273 v 48.098" /><path
         id="path238"
         style="fill:#211d1d;fill-opacity:1;fill-rule:nonzero;stroke:none"
         d="m 601.41,274.109 v -24.668 h -34.18 v -98.828 h -24.66 v 98.828 h -34.351 v 24.668 h 93.191" /><path
         id="path240"
         style="fill:#211d1d;fill-opacity:1;fill-rule:nonzero;stroke:none"
         d="m 618.156,175.281 h 81.742 v -24.668 h -81.742 z m 0,51.262 h 68.176 v -24.66 h -68.176 z m 82.27,22.898 h -82.27 v 24.668 h 82.27 v -24.668" /><path
         id="path242"
         style="fill:#211d1d;fill-opacity:1;fill-rule:nonzero;stroke:none"
         d="m 784.645,274.109 58.312,-123.496 h -27.309 l -35.234,75.051 -38.223,-75.051 h -27.66 l 62.895,123.496 h 7.219" /><path
         id="path244"
         style="fill:#211d1d;fill-opacity:1;fill-rule:nonzero;stroke:none"
         d="m 956.066,150.613 v 75.578 l -35.41,-32.238 -35.406,32.238 v -75.578 h -24.66 v 123.496 h 8.453 l 51.613,-46.863 51.442,46.863 h 8.632 V 150.613 h -24.664" /><path
         id="path246"
         style="fill:#211d1d;fill-opacity:1;fill-rule:nonzero;stroke:none"
         d="m 1044.85,175.281 h 81.75 v -24.668 h -81.75 z m 0,51.262 h 68.18 v -24.66 h -68.18 z m 82.27,22.898 h -82.27 v 24.668 h 82.27 v -24.668" /><path
         id="path248"
         style="fill:#211d1d;fill-opacity:1;fill-rule:nonzero;stroke:none"
         d="m 1218.04,212.273 43.86,-61.66 h -30.3 l -28.72,40.344 -28.71,-40.344 h -30.3 l 43.86,61.66 -43.86,61.836 h 30.3 l 28.71,-40.515 28.72,40.515 h 30.3 l -43.86,-61.836" /><path
         id="path250"
         style="fill:#211d1d;fill-opacity:1;fill-rule:nonzero;stroke:none"
         d="m 1369.2,274.109 v -24.668 h -34.18 v -98.828 h -24.66 v 98.828 h -34.35 v 24.668 h 93.19" /><path
         id="path252"
         style="fill:#211d1d;fill-opacity:1;fill-rule:nonzero;stroke:none"
         d="m 1385.95,175.281 h 81.74 v -24.668 h -81.74 z m 0,51.262 h 68.18 v -24.66 h -68.18 z m 82.27,22.898 h -82.27 v 24.668 h 82.27 v -24.668" /><path
         id="path254"
         style="fill:#211d1d;fill-opacity:1;fill-rule:nonzero;stroke:none"
         d="m 1585.2,150.613 -69.41,72.051 v -72.051 h -24.66 v 123.496 h 7.75 l 68.17,-69.062 v 69.062 h 24.67 V 150.613 h -6.52" /><path
         id="path256"
         style="fill:#211d1d;fill-opacity:1;fill-rule:nonzero;stroke:none"
         d="m 1653.92,202.938 c -4.05,1.054 -11.63,3 -18.68,7.746 -9.86,6.523 -15.32,16.035 -15.85,27.839 -0.53,9.864 2.64,18.497 8.98,25.188 9.16,9.512 22.38,12.156 28.72,12.156 17.97,0 28.01,-6.523 36.99,-12.332 l 4.05,-2.637 -12.86,-20.968 -4.4,2.824 c -7.93,5.105 -13.04,8.445 -23.78,8.445 -1.59,0 -7.75,-1.23 -10.92,-4.578 -1.06,-1.055 -2.29,-2.988 -2.12,-7.043 0.17,-6.348 4.58,-9.863 15.86,-12.683 1.41,-0.352 2.46,-0.704 3.52,-1.055 11.8,-4.055 20.96,-9.512 27.3,-16.387 6.34,-7.043 9.69,-15.324 9.69,-24.133 0,-8.632 -3.7,-17.617 -9.86,-24.492 -7.23,-8.094 -17.26,-12.676 -28.36,-12.676 -5.47,0 -12.86,0.352 -21.67,2.989 -11.1,3.527 -20.97,9.687 -29.42,18.672 l 17.97,16.914 c 13.03,-13.914 27.65,-13.914 33.12,-13.914 10.22,0 13.56,9.335 13.56,12.507 0,6.692 -7.58,12.864 -20.44,17.266 l -0.52,0.176 -0.88,0.176" /><path
         id="path258"
         style="fill:#211d1d;fill-opacity:1;fill-rule:nonzero;stroke:none"
         d="m 1719.81,150.789 v 123.32 h 24.66 v -123.32 h -24.66" /><path
         id="path260"
         style="fill:#211d1d;fill-opacity:1;fill-rule:nonzero;stroke:none"
         d="m 1782.18,212.449 c 0,-21.316 17.26,-38.582 38.58,-38.582 21.31,0 38.58,17.266 38.58,38.582 0,21.321 -17.27,38.574 -38.58,38.574 -21.32,0 -38.58,-17.253 -38.58,-38.574 z m 102.52,0 c 0,-35.234 -28.71,-63.945 -63.94,-63.945 -35.24,0 -63.95,28.711 -63.95,63.945 0,35.235 28.71,63.946 63.95,63.946 35.23,0 63.94,-28.711 63.94,-63.946" /><path
         id="path262"
         style="fill:#211d1d;fill-opacity:1;fill-rule:nonzero;stroke:none"
         d="m 1999.94,150.613 -69.41,72.051 v -72.051 h -24.67 v 123.496 h 7.76 l 68.17,-69.062 v 69.062 h 24.66 V 150.613 h -6.51" /><path
         id="path264"
         style="fill:#ffffff;fill-opacity:1;fill-rule:nonzero;stroke:none"
         d="M 48.0859,164.09 192.363,308.367 336.645,164.09 H 288.551 L 192.367,260.273 96.1758,164.09 H 48.0859" /><path
         id="path266"
         style="fill:#211d1d;fill-opacity:1;fill-rule:nonzero;stroke:none"
         d="m 345.469,56.668 h 2.5 c 0.765,0.0195 1.386,0.207 1.855,0.5586 0.473,0.3515 0.707,0.8203 0.707,1.3945 0,0.7734 -0.211,1.3203 -0.625,1.6523 -0.422,0.3204 -1.164,0.4883 -2.226,0.4883 h -2.211 z m 0,-2.0508 v -5.418 h -2.262 v 13.6133 h 4.426 c 1.629,0 2.898,-0.3516 3.801,-1.0547 0.906,-0.7031 1.351,-1.7187 1.351,-3.0586 0,-1.3086 -0.68,-2.3125 -2.051,-3.0078 1.305,-0.5351 1.965,-1.6211 1.977,-3.2695 v -0.9766 c 0,-0.918 0.09,-1.582 0.273,-1.9844 v -0.2617 h -2.328 c -0.148,0.3906 -0.222,1.0742 -0.222,2.0586 0,0.9961 -0.016,1.5742 -0.047,1.7578 -0.172,1.0274 -0.871,1.5625 -2.102,1.6016 z m -7.184,1.2109 c 0,-1.8359 0.43,-3.5351 1.285,-5.0976 0.856,-1.5625 2.016,-2.793 3.485,-3.6719 1.472,-0.8867 3.058,-1.3359 4.765,-1.3359 1.719,0 3.317,0.457 4.789,1.3554 1.477,0.8985 2.633,2.1289 3.473,3.6719 0.836,1.5547 1.258,3.2422 1.258,5.0781 0,1.8282 -0.422,3.5078 -1.258,5.0508 -0.84,1.543 -1.996,2.7617 -3.473,3.6524 -1.472,0.8867 -3.07,1.3359 -4.789,1.3359 -1.707,0 -3.3,-0.4375 -4.773,-1.3164 -1.477,-0.8906 -2.637,-2.1016 -3.488,-3.6641 -0.848,-1.5625 -1.274,-3.2422 -1.274,-5.0586 z m -1.84,-0.0078 c 0,2.1563 0.496,4.1602 1.496,6.0039 1,1.8555 2.383,3.3125 4.153,4.375 1.765,1.0547 3.676,1.5938 5.726,1.5938 2.051,0 3.961,-0.5391 5.723,-1.5938 1.766,-1.0625 3.141,-2.5195 4.141,-4.375 0.996,-1.8437 1.5,-3.8476 1.5,-6.0039 0,-2.1015 -0.485,-4.0742 -1.446,-5.9101 -0.961,-1.836 -2.324,-3.3204 -4.09,-4.4336 -1.769,-1.1133 -3.71,-1.668 -5.828,-1.668 -2.101,0 -4.043,0.5469 -5.808,1.6484 -1.77,1.1133 -3.137,2.5782 -4.11,4.4141 -0.968,1.8477 -1.457,3.8203 -1.457,5.9492" /></g></g></svg>